<svg width="315" height="204" viewBox="0 0 315 204" fill="none" xmlns="http://www.w3.org/2000/svg">
<path d="M260.352 95.04C292.032 95.04 314.784 75.168 314.784 47.52C314.784 19.872 292.032 0 260.352 0C228.672 0 205.92 19.872 205.92 47.52C205.92 75.168 228.672 95.04 260.352 95.04ZM138.816 124.704L38.592 2.30399H0V203.904H46.08V81.504L146.592 203.904H184.896V2.30399H138.816V124.704ZM260.352 23.904C274.464 23.904 284.256 32.832 284.256 47.52C284.256 61.92 274.464 71.136 260.352 71.136C246.24 71.136 236.16 61.92 236.16 47.52C236.16 32.832 246.24 23.904 260.352 23.904ZM211.68 141.408H309.024V114.048H211.68V141.408Z" fill="black"/>
</svg>
